<svg width="32" height="32" viewBox="0 0 32 32" fill="none" xmlns="http://www.w3.org/2000/svg">
<rect width="31.9966" height="32" fill="black"/>
<path d="M12.6536 13.8951C15.319 12.6204 17.4049 10.4572 18.6024 7.7532C17.8299 6.942 16.8255 6.36258 15.7439 6.01492L15.1645 5.82178C15.1259 5.89903 15.0872 6.01492 15.0872 6.09218C14.1602 8.71892 12.2674 10.8435 9.71788 12.041C7.94097 12.8908 6.6276 14.4359 6.00955 16.2901L5.81641 16.8695C5.89366 16.9081 6.00955 16.9468 6.08681 16.9468C6.82075 17.2172 7.55469 17.5648 8.25 17.9897C9.21571 16.2515 10.7608 14.7836 12.6536 13.8951Z" fill="white"/>
<path d="M23.862 14.0493C22.4327 16.2125 20.4627 17.9508 18.0291 19.1096C16.059 20.0367 14.5525 21.775 13.8572 23.861L13.6641 24.5176C14.398 25.1743 15.2865 25.6765 16.2522 25.9855L16.8316 26.1787C16.8702 26.1014 16.9089 25.9855 16.9089 25.9083C17.8359 23.2815 19.7287 21.157 22.2782 19.9595C24.0551 19.1097 25.4071 17.5645 25.9865 15.7103L26.1797 15.1309C25.3685 14.8991 24.5959 14.5129 23.862 14.0493Z" fill="white"/>
<path d="M12.1163 22.5091C13.082 20.1914 14.8589 18.2986 17.138 17.217C19.224 16.2126 20.9622 14.6675 22.1597 12.7747C21.2713 11.9249 20.5373 10.9591 19.9965 9.80029C18.5673 12.427 16.3268 14.5516 13.5842 15.865C12.0004 16.5989 10.7257 17.8736 9.95312 19.4188C10.803 20.23 11.4983 21.2343 12.0391 22.3545C12.0391 22.3545 12.0777 22.4318 12.1163 22.5091Z" fill="white"/>
</svg>
