<svg width="40" height="40" viewBox="0 0 40 40" fill="none" xmlns="http://www.w3.org/2000/svg">
<circle cx="20" cy="20" r="19.5" fill="#141414" stroke="#303030"/>
<g clip-path="url(#clip0_46_21)">
<path d="M20.0008 11.668C22.265 11.668 22.5475 11.6763 23.4358 11.718C24.3233 11.7596 24.9275 11.8988 25.4591 12.1055C26.0091 12.3171 26.4725 12.6038 26.9358 13.0663C27.3596 13.4829 27.6874 13.9868 27.8967 14.543C28.1025 15.0738 28.2425 15.6788 28.2842 16.5663C28.3233 17.4546 28.3342 17.7371 28.3342 20.0013C28.3342 22.2655 28.3258 22.548 28.2842 23.4363C28.2425 24.3238 28.1025 24.928 27.8967 25.4596C27.688 26.0161 27.3601 26.5202 26.9358 26.9363C26.5191 27.3599 26.0152 27.6878 25.4591 27.8971C24.9283 28.103 24.3233 28.243 23.4358 28.2846C22.5475 28.3238 22.265 28.3346 20.0008 28.3346C17.7366 28.3346 17.4541 28.3263 16.5658 28.2846C15.6783 28.243 15.0741 28.103 14.5425 27.8971C13.9861 27.6884 13.4821 27.3604 13.0658 26.9363C12.642 26.5198 12.3141 26.0159 12.105 25.4596C11.8983 24.9288 11.7591 24.3238 11.7175 23.4363C11.6783 22.548 11.6675 22.2655 11.6675 20.0013C11.6675 17.7371 11.6758 17.4546 11.7175 16.5663C11.7591 15.678 11.8983 15.0746 12.105 14.543C12.3135 13.9865 12.6415 13.4824 13.0658 13.0663C13.4822 12.6423 13.9862 12.3144 14.5425 12.1055C15.0741 11.8988 15.6775 11.7596 16.5658 11.718C17.4541 11.6788 17.7366 11.668 20.0008 11.668ZM20.0008 15.8346C18.8957 15.8346 17.8359 16.2736 17.0545 17.055C16.2731 17.8364 15.8341 18.8962 15.8341 20.0013C15.8341 21.1064 16.2731 22.1662 17.0545 22.9476C17.8359 23.729 18.8957 24.168 20.0008 24.168C21.1059 24.168 22.1657 23.729 22.9471 22.9476C23.7285 22.1662 24.1675 21.1064 24.1675 20.0013C24.1675 18.8962 23.7285 17.8364 22.9471 17.055C22.1657 16.2736 21.1059 15.8346 20.0008 15.8346ZM25.4175 15.6263C25.4175 15.35 25.3077 15.0851 25.1124 14.8897C24.917 14.6944 24.6521 14.5846 24.3758 14.5846C24.0995 14.5846 23.8346 14.6944 23.6392 14.8897C23.4439 15.0851 23.3341 15.35 23.3341 15.6263C23.3341 15.9026 23.4439 16.1675 23.6392 16.3629C23.8346 16.5582 24.0995 16.668 24.3758 16.668C24.6521 16.668 24.917 16.5582 25.1124 16.3629C25.3077 16.1675 25.4175 15.9026 25.4175 15.6263ZM20.0008 17.5013C20.6639 17.5013 21.2997 17.7647 21.7686 18.2335C22.2374 18.7024 22.5008 19.3383 22.5008 20.0013C22.5008 20.6643 22.2374 21.3002 21.7686 21.7691C21.2997 22.2379 20.6639 22.5013 20.0008 22.5013C19.3378 22.5013 18.7019 22.2379 18.233 21.7691C17.7642 21.3002 17.5008 20.6643 17.5008 20.0013C17.5008 19.3383 17.7642 18.7024 18.233 18.2335C18.7019 17.7647 19.3378 17.5013 20.0008 17.5013Z" fill="white"/>
</g>
<defs>
<clipPath id="clip0_46_21">
<rect width="20" height="20" fill="white" transform="translate(10 10)"/>
</clipPath>
</defs>
</svg>
