<svg width="40" height="40" viewBox="0 0 40 40" fill="none" xmlns="http://www.w3.org/2000/svg">
<circle cx="20" cy="20" r="19.5" fill="#141414" stroke="#303030"/>
<g clip-path="url(#clip0_46_16)">
<path d="M28.4678 14.7138C27.8316 14.9952 27.1569 15.18 26.4661 15.2621C27.1942 14.8266 27.7392 14.1413 27.9994 13.3338C27.3161 13.7404 26.5669 14.0254 25.7861 14.1796C25.2616 13.6184 24.5664 13.2462 23.8086 13.1209C23.0507 12.9956 22.2727 13.1242 21.5955 13.4866C20.9183 13.8491 20.3798 14.4252 20.0637 15.1253C19.7476 15.8253 19.6717 16.6102 19.8478 17.3579C18.462 17.2885 17.1064 16.9284 15.8688 16.301C14.6313 15.6736 13.5395 14.793 12.6644 13.7163C12.3547 14.2483 12.1919 14.8531 12.1928 15.4688C12.1928 16.6771 12.8078 17.7446 13.7428 18.3696C13.1894 18.3522 12.6483 18.2027 12.1644 17.9338V17.9771C12.1646 18.7818 12.4431 19.5618 12.9526 20.1846C13.4622 20.8075 14.1715 21.235 14.9603 21.3946C14.4466 21.5338 13.908 21.5543 13.3853 21.4546C13.6077 22.1473 14.0411 22.7531 14.6249 23.1872C15.2087 23.6213 15.9137 23.8619 16.6411 23.8754C15.9182 24.4432 15.0904 24.8629 14.2052 25.1106C13.3199 25.3582 12.3945 25.429 11.4819 25.3188C13.075 26.3433 14.9295 26.8872 16.8236 26.8854C23.2344 26.8854 26.7403 21.5746 26.7403 16.9688C26.7403 16.8188 26.7361 16.6671 26.7294 16.5188C27.4118 16.0256 28.0008 15.4146 28.4686 14.7146L28.4678 14.7138Z" fill="white"/>
</g>
<defs>
<clipPath id="clip0_46_16">
<rect width="20" height="20" fill="white" transform="translate(10 10)"/>
</clipPath>
</defs>
</svg>
