<svg width="145" height="32" viewBox="0 0 145 32" fill="none" xmlns="http://www.w3.org/2000/svg">
<path d="M67.5808 21.1188C66.8115 21.1188 66.449 20.7638 66.449 19.9945V7.63388H60.6571V21.1188H56.0265C55.2572 21.1188 54.8947 20.7638 54.8947 19.9945V7.63388H49.1028V18.5076L45.4042 9.60891C44.5831 7.61169 42.9927 7.42676 41.2988 7.42676C38.5323 7.42676 37.763 8.27003 37.1934 9.60891L30.5508 25.5793H36.6534L38.0663 21.8881H44.524L45.9368 25.5793H51.9211H52.0394H63.4754H64.8956H74.7486V21.1188H67.5808ZM39.4643 17.7901L41.0769 13.2557C41.1287 13.0782 41.2026 12.871 41.3062 12.871C41.4098 12.871 41.4837 13.0782 41.5355 13.2557L43.1481 17.7901H39.4643Z" fill="#9A9A9A"/>
<path d="M97.984 7.42676C97.1703 7.42676 96.4306 7.47114 95.75 7.55251H80.1717C78.5813 7.55251 77.738 8.14428 77.738 9.93438L77.6641 25.5719H79.0473V17.2723H87.0954V16.0444H79.0473V10.0158C79.0473 9.24645 79.1731 8.8618 80.1495 8.8618H92.0293C90.0542 10.2747 89.2776 12.7675 89.2776 16.6066C89.2776 23.0939 91.4819 25.7864 97.9914 25.7864C104.508 25.7864 106.661 23.0939 106.661 16.6066C106.646 10.1193 104.493 7.42676 97.984 7.42676ZM97.9544 24.5585C92.1624 24.5585 90.7496 22.3246 90.7496 16.6066C90.7496 10.8886 92.1624 8.66208 97.9544 8.66208C103.746 8.66208 105.159 10.896 105.159 16.6066C105.159 22.3246 103.754 24.5585 97.9544 24.5585Z" fill="#9A9A9A"/>
<path d="M104.782 8.76559H112.416C115.079 8.76559 115.39 10.3782 115.39 12.7896C115.39 15.0679 115.264 16.9468 112.801 16.9468H107.489C107.105 16.9468 106.875 17.1539 106.875 17.5312V17.938C106.875 18.2709 107.105 18.4262 107.364 18.6555L115.286 25.4757H117.313L108.902 18.3005V18.1747H112.875C116.077 18.1747 116.876 15.9704 116.876 12.7896C116.876 11.1031 116.58 9.69763 115.782 8.76559H120.678V25.4831H122.062V8.76559H128.852L135.525 19.5802V25.4757H136.908V19.5802L144.342 7.53027H142.803L136.212 18.3227L129.636 7.53027H129.585H128.105H112.675H111.868H102.57C102.57 7.53027 104.013 8.00369 104.782 8.76559Z" fill="#9A9A9A"/>
<path d="M7.30909 5.25928H4.1875V8.38086H7.30909V5.25928Z" fill="#9A9A9A"/>
<path d="M10.1337 1.64209H7.71484V4.06095H10.1337V1.64209Z" fill="#9A9A9A"/>
<path d="M13.9675 0H12.207V1.76052H13.9675V0Z" fill="#9A9A9A"/>
<path d="M4.46814 1.76782H2.30078V3.93518H4.46814V1.76782Z" fill="#9A9A9A"/>
<path d="M3.01063 9.03174H0V12.0424H3.01063V9.03174Z" fill="#9A9A9A"/>
<path d="M17.544 1.40527H16.1016V2.84771H17.544V1.40527Z" fill="#9A9A9A"/>
<path d="M20.2036 5.10418V4.19433H18.702V4.80829C18.088 4.72692 17.4741 4.66775 16.8379 4.66775C16.3349 4.66775 15.8467 4.70473 15.3585 4.75651V3.55078H12.9544V5.24472C12.3996 5.40746 11.8523 5.60718 11.3271 5.83649V5.25952H9.36682V6.90168C8.95998 7.16798 8.56793 7.44907 8.19068 7.75235H8.17588C7.51014 8.29234 6.91097 8.9137 6.35619 9.57204C6.334 9.60163 6.30441 9.63122 6.28222 9.66081C6.03811 9.95669 5.8162 10.26 5.60168 10.5707C5.5573 10.6298 5.52031 10.689 5.47593 10.7482C5.43155 10.8148 5.39456 10.8813 5.35758 10.9479V10.5115H4.65485V11.2142H5.19484C5.09128 11.3769 4.98772 11.5397 4.89156 11.7098C4.85457 11.769 4.81759 11.8356 4.788 11.8947C4.60307 12.235 4.44034 12.5827 4.285 12.9377C4.2628 12.9895 4.24061 13.0413 4.21842 13.0931C4.10746 13.352 4.0187 13.6257 3.92254 13.892H0.734375V17.2724H3.19762C3.16803 17.6201 3.15324 17.9678 3.15324 18.3154H1.88833V19.9354H3.25679C3.30857 20.3644 3.37515 20.7861 3.47131 21.2077H3.02009V22.3025H3.7598C5.20224 27.0514 9.1523 30.713 14.0788 31.719C14.9738 31.904 15.8985 32.0001 16.8527 32.0001C24.3978 32.0001 30.5226 25.8827 30.5226 18.3302C30.5078 11.9539 26.1213 6.60579 20.2036 5.10418ZM16.8231 29.2114C16.7861 29.2114 16.7565 29.204 16.7196 29.204C16.3275 29.204 15.9429 29.1744 15.5656 29.13C15.3955 29.1078 15.2327 29.0783 15.07 29.0561C14.8259 29.0191 14.5818 28.9673 14.3451 28.9155C14.1602 28.8711 13.9826 28.8268 13.8051 28.775C13.5906 28.7158 13.3761 28.6418 13.1689 28.5605C12.9914 28.4939 12.8139 28.4421 12.6363 28.3681C12.3996 28.272 12.1777 28.1536 11.9484 28.0427C11.8153 27.9761 11.6821 27.9095 11.5564 27.8429C11.7339 27.4953 11.9188 27.1476 12.1112 26.8073C13.3169 24.6474 15.144 23.0348 16.9415 21.4148C17.4519 20.9488 17.5776 20.9414 18.0954 21.4148C18.8647 22.1176 19.6044 22.8499 20.3737 23.56C20.6918 23.8559 21.0173 24.1222 21.1504 24.5734C21.2022 24.7509 21.4389 24.9211 21.6313 25.0098C22.5929 25.4241 23.8504 24.9729 24.6271 23.952C24.9378 23.5452 25.1005 23.0718 24.9526 22.5762C24.6863 21.6959 24.3608 20.8305 24.0797 19.9502C23.9392 19.5064 23.806 19.0552 23.7468 18.5965C23.6211 17.6127 23.8356 16.5697 23.2216 15.6673C23.1846 15.6155 23.1773 15.5415 23.1773 15.4823C23.1181 14.8092 22.7852 14.2766 22.2822 13.8624C21.5647 13.2706 21.0099 12.5605 20.64 11.7098C20.248 10.8222 19.8781 9.91971 19.4935 9.03205C19.4417 8.9063 19.3899 8.78055 19.3307 8.66219C19.2346 8.44028 19.131 8.21097 18.9757 8.03344C18.7464 7.77454 18.4727 7.75975 18.3395 8.1222C18.236 8.41809 18.1472 8.72137 18.0732 9.02465C18.0436 9.1578 18.0067 9.29095 17.9845 9.4241C17.8661 10.1712 17.7995 10.9331 17.7034 11.7394C17.5258 11.5915 17.4001 11.4879 17.2226 11.3326C17.2226 11.7764 17.2226 12.1462 17.2226 12.5531C16.7048 12.2794 16.2018 12.0057 15.5804 11.6728C15.8171 12.0501 15.9651 12.2868 16.187 12.6492C15.6766 12.3977 15.2993 12.2054 14.8185 11.9687C14.9664 12.2572 15.0552 12.4273 15.1218 12.5531C14.8259 12.9303 14.5596 12.8046 14.2711 12.4865C14.2563 12.7158 14.2489 12.8638 14.2415 12.9821C13.8421 12.9377 13.4722 12.8933 13.0506 12.849C13.0876 13.0931 13.1246 13.3002 13.1615 13.5221C12.9396 13.4481 12.7547 13.3816 12.5328 13.3002C12.7251 13.6109 12.8805 13.855 13.1024 14.21C12.444 14.21 11.9262 14.21 11.2679 14.21C11.4972 14.3802 11.5934 14.4467 11.6969 14.5281C11.2679 14.6465 10.8684 14.7574 10.4246 14.8758C10.861 15.0903 11.2013 15.2604 11.5342 15.4306C11.512 15.4897 11.4972 15.5415 11.475 15.6007C10.7501 15.6007 10.0178 15.6007 9.22627 15.6007C9.43339 15.7338 9.56654 15.8152 9.76627 15.941C8.99696 16.2073 8.30903 16.4514 7.58411 16.7029C7.73206 16.8878 7.81342 16.9988 7.93917 17.1541C7.48795 17.1985 7.1033 17.2429 6.71865 17.2798C6.48934 17.302 6.26003 17.3242 6.03072 17.3464C6.334 14.0399 8.11671 11.1698 10.7131 9.38711C10.7649 9.35013 10.8167 9.32054 10.8684 9.28355C11.083 9.14301 11.3049 9.00986 11.5268 8.88411C11.6081 8.83973 11.6821 8.79534 11.7635 8.75096C11.9854 8.63261 12.2147 8.52905 12.444 8.42549C12.5698 8.37371 12.6881 8.31453 12.8139 8.27015C13.0358 8.18138 13.2651 8.10001 13.4944 8.01864C13.6645 7.95947 13.8421 7.91508 14.0196 7.8707C14.1084 7.84851 14.2045 7.82632 14.2933 7.80413C15.1218 7.60441 15.9798 7.48605 16.8601 7.48605C17.7774 7.48605 18.6502 7.6118 19.4935 7.82632C24.2202 9.00986 27.7117 13.2706 27.7117 18.3672C27.6895 24.3441 22.8296 29.2114 16.8231 29.2114ZM19.8707 12.0205C19.9299 12.1536 19.9521 12.3386 19.8929 12.4569C19.8559 12.5383 19.6414 12.5679 19.5157 12.5531C18.9757 12.4643 18.4875 11.806 18.4505 11.1402C18.4357 10.8961 18.4431 10.652 18.4653 10.4079C18.5097 10.0233 18.5836 9.63861 18.6576 9.1652C19.0792 9.71259 19.3086 10.223 19.2124 10.8222L19.8707 12.0205ZM22.9405 17.805C22.8518 18.0417 22.7556 18.3894 22.5781 18.4634C22.3636 18.5522 21.9863 18.493 21.7866 18.345C21.2318 17.9234 20.7288 17.4352 20.2258 16.9544C20.1296 16.8656 20.0483 16.6881 20.0779 16.5845C20.1074 16.4957 20.2924 16.4144 20.4181 16.3996C21.0913 16.296 21.757 16.1999 22.4301 16.1407C22.5633 16.1333 22.8 16.2886 22.837 16.4144C22.9331 16.7177 22.9405 17.0505 22.9923 17.3686C22.9775 17.3686 22.9627 17.3686 22.9479 17.376C22.9479 17.5166 22.9849 17.6793 22.9405 17.805ZM21.0099 21.4148C21.2984 21.4296 21.5869 21.3557 21.8828 21.3261C22.2896 21.2891 22.5855 21.1042 22.726 20.6973C22.7852 20.5272 22.874 20.3644 22.9775 20.2239C23.2882 19.8245 23.6655 19.8319 23.843 20.3053C24.1389 21.0746 24.3756 21.8661 24.5975 22.6649C24.6493 22.8499 24.5383 23.0866 24.5087 23.2937C24.4644 23.2937 24.4274 23.2937 24.383 23.2937C24.3386 23.1236 24.3164 22.9386 24.235 22.7759C24.1907 22.6797 24.0427 22.554 23.9687 22.5688C23.8726 22.591 23.732 22.7463 23.7394 22.8277C23.7616 23.094 23.8726 23.3529 23.9022 23.6192C23.917 23.7745 23.9096 24.026 23.8134 24.0926C23.5545 24.2701 23.1477 24.5438 22.9849 24.4477C22.7556 24.3219 22.6595 23.9003 22.5633 23.5896C22.4819 23.3381 22.4819 23.0644 22.4449 22.7981C22.3932 22.7981 22.3414 22.8055 22.297 22.8055C22.297 23.0126 22.297 23.2197 22.297 23.4269C22.297 23.7153 22.3562 24.0186 22.297 24.2923C22.2082 24.714 21.6978 24.8249 21.5647 24.4477C21.217 23.4638 20.322 22.9904 19.6784 22.2729C19.9891 21.7329 20.3663 21.3852 21.0099 21.4148Z" fill="#9A9A9A"/>
<path d="M22.2301 16.969H21.5273V17.6717H22.2301V16.969Z" fill="#9A9A9A"/>
</svg>
