<svg width="94" height="29" viewBox="0 0 94 29" fill="none" xmlns="http://www.w3.org/2000/svg">
<g clip-path="url(#clip0_1788_94456)">
<path d="M9.40428 11.6045C13.0704 9.85115 15.9395 6.87578 17.5865 3.15658C16.5239 2.04081 15.1425 1.24384 13.6548 0.765658L12.8578 0.5C12.8047 0.606263 12.7516 0.765664 12.7516 0.871927C11.4764 4.48487 8.87297 7.4071 5.36629 9.05418C2.92224 10.2231 1.11576 12.3483 0.265658 14.8986L0 15.6956C0.106263 15.7488 0.26566 15.8019 0.371923 15.8019C1.38142 16.1738 2.39092 16.652 3.34729 17.2364C4.67558 14.8455 6.80083 12.8265 9.40428 11.6045Z" fill="black"/>
<path d="M24.8158 11.8169C22.8499 14.7923 20.1402 17.1832 16.7929 18.7771C14.0832 20.0523 12.0111 22.4432 11.0547 25.3123L10.7891 26.2155C11.7986 27.1188 13.0206 27.8095 14.3489 28.2345L15.1458 28.5002C15.199 28.3939 15.2521 28.2345 15.2521 28.1283C16.5273 24.5153 19.1307 21.5931 22.6374 19.946C25.0814 18.7771 26.941 16.6519 27.738 14.1016L28.0037 13.3046C26.8879 12.9858 25.8253 12.4545 24.8158 11.8169Z" fill="black"/>
<path d="M8.66286 23.4529C9.99115 20.265 12.4352 17.6616 15.57 16.1739C18.4391 14.7925 20.83 12.6672 22.4771 10.0638C21.255 8.8949 20.2455 7.5666 19.5017 5.97266C17.5358 9.5856 14.4542 12.5078 10.6819 14.3143C8.50347 15.3238 6.75013 17.0772 5.6875 19.2024C6.85639 20.3182 7.81276 21.6996 8.5566 23.2404C8.5566 23.2404 8.60973 23.3467 8.66286 23.4529Z" fill="black"/>
<path d="M37.7972 23.5V5.31818H49.6225V8.07919H41.0909V13.0153H49.0099V15.7763H41.0909V20.739H49.6935V23.5H37.7972ZM56.6511 23.7397C55.5798 23.7397 54.621 23.4645 53.7747 22.9141C52.9283 22.3636 52.2595 21.5646 51.7683 20.517C51.277 19.4695 51.0314 18.197 51.0314 16.6996C51.0314 15.1844 51.28 13.906 51.7772 12.8643C52.2802 11.8168 52.9579 11.0266 53.8102 10.494C54.6625 9.95537 55.6124 9.68608 56.66 9.68608C57.459 9.68608 58.1159 9.82221 58.6309 10.0945C59.1458 10.3608 59.5542 10.6834 59.856 11.0621C60.1578 11.435 60.3916 11.7872 60.5574 12.1186H60.6905V5.31818H63.9132V23.5H60.7527V21.3516H60.5574C60.3916 21.683 60.1519 22.0352 59.8382 22.408C59.5246 22.775 59.1103 23.0887 58.5953 23.3491C58.0804 23.6095 57.4324 23.7397 56.6511 23.7397ZM57.5478 21.103C58.2284 21.103 58.8084 20.9195 59.2878 20.5526C59.7672 20.1797 60.1312 19.6618 60.3798 18.9989C60.6284 18.3361 60.7527 17.5637 60.7527 16.6818C60.7527 15.8 60.6284 15.0335 60.3798 14.3825C60.1371 13.7314 59.7761 13.2254 59.2967 12.8643C58.8232 12.5033 58.2402 12.3228 57.5478 12.3228C56.8316 12.3228 56.2338 12.5092 55.7544 12.8821C55.275 13.255 54.914 13.7699 54.6713 14.4268C54.4287 15.0838 54.3074 15.8355 54.3074 16.6818C54.3074 17.5341 54.4287 18.2946 54.6713 18.9634C54.9199 19.6263 55.2839 20.1501 55.7633 20.5348C56.2486 20.9136 56.8435 21.103 57.5478 21.103ZM71.1482 23.7397C70.0769 23.7397 69.1181 23.4645 68.2718 22.9141C67.4254 22.3636 66.7566 21.5646 66.2654 20.517C65.7741 19.4695 65.5285 18.197 65.5285 16.6996C65.5285 15.1844 65.7771 13.906 66.2742 12.8643C66.7773 11.8168 67.455 11.0266 68.3073 10.494C69.1595 9.95537 70.1095 9.68608 71.157 9.68608C71.9561 9.68608 72.613 9.82221 73.1279 10.0945C73.6428 10.3608 74.0512 10.6834 74.3531 11.0621C74.6549 11.435 74.8887 11.7872 75.0544 12.1186H75.1876V5.31818H78.4102V23.5H75.2497V21.3516H75.0544C74.8887 21.683 74.649 22.0352 74.3353 22.408C74.0216 22.775 73.6073 23.0887 73.0924 23.3491C72.5775 23.6095 71.9294 23.7397 71.1482 23.7397ZM72.0448 21.103C72.7255 21.103 73.3055 20.9195 73.7849 20.5526C74.2643 20.1797 74.6283 19.6618 74.8769 18.9989C75.1254 18.3361 75.2497 17.5637 75.2497 16.6818C75.2497 15.8 75.1254 15.0335 74.8769 14.3825C74.6342 13.7314 74.2732 13.2254 73.7938 12.8643C73.3203 12.5033 72.7373 12.3228 72.0448 12.3228C71.3287 12.3228 70.7309 12.5092 70.2515 12.8821C69.7721 13.255 69.4111 13.7699 69.1684 14.4268C68.9258 15.0838 68.8044 15.8355 68.8044 16.6818C68.8044 17.5341 68.9258 18.2946 69.1684 18.9634C69.417 19.6263 69.781 20.1501 70.2604 20.5348C70.7457 20.9136 71.3405 21.103 72.0448 21.103ZM82.5824 28.6136C82.1444 28.6136 81.739 28.5781 81.3661 28.5071C80.9992 28.442 80.7062 28.3651 80.4872 28.2763L81.233 25.7727C81.7005 25.9089 82.1178 25.974 82.4847 25.968C82.8517 25.9621 83.1742 25.8467 83.4524 25.6218C83.7365 25.4028 83.9762 25.0359 84.1715 24.521L84.4467 23.7841L79.5018 9.86364H82.9109L86.0536 20.1619H86.1957L89.3473 9.86364H92.7653L87.3054 25.1513C87.0509 25.8733 86.7135 26.4918 86.2933 27.0067C85.8731 27.5276 85.3582 27.9241 84.7486 28.1964C84.1449 28.4746 83.4228 28.6136 82.5824 28.6136Z" fill="black"/>
</g>
<defs>
<clipPath id="clip0_1788_94456">
<rect width="94.0037" height="28.0002" fill="white" transform="translate(0 0.5)"/>
</clipPath>
</defs>
</svg>
