<svg width="86" height="32" viewBox="0 0 86 32" fill="none" xmlns="http://www.w3.org/2000/svg">
<path fill-rule="evenodd" clip-rule="evenodd" d="M73.5879 1.59038L62.5474 3.14049L62.4983 14.3944L62.4492 25.6483H63.4977H64.5461V18.3338V11.0193H66.3545H68.1628V18.3338V25.6483H72.1602H76.1576V17.0038V8.35943H73.2072H70.2567V6.74454V5.12965H77.966H85.6753V2.56483V0L85.1518 0.0201388C84.864 0.0311581 79.6601 0.73772 73.5879 1.59038ZM68.1628 6.45956V8.35943H66.3545H64.5461V6.45956V4.55969H66.3545H68.1628V6.45956ZM79.7743 17.0038C79.7743 21.7583 79.8179 25.6483 79.8714 25.6483C79.9247 25.6483 80.5885 25.1929 81.3467 24.6362C82.1046 24.0795 83.3888 23.1794 84.2 22.6356L85.6753 21.6469V15.0033V8.35943H82.7248H79.7743V17.0038Z" fill="#9A9A9A"/>
<path fill-rule="evenodd" clip-rule="evenodd" d="M0.588253 13.0789C0.588253 18.0786 0.53229 22.9552 0.463953 23.9161L0.339844 25.6629L2.03436 25.6076L3.72907 25.5523L3.82424 24.6371L3.91942 23.7218L4.58565 24.4162C5.62459 25.4991 6.55313 25.8912 8.29752 25.9836C10.2047 26.0845 11.5748 25.6203 12.9115 24.4209C16.1594 21.5061 16.314 15.0485 13.2078 12.0355C11.1225 10.0127 7.43484 9.90003 5.27967 11.7934L4.3953 12.5705V8.27963V3.98877H2.49178H0.588253V13.0789ZM41.3236 8.18311V12.3775L40.7659 11.8208C39.7719 10.8287 38.9402 10.5435 37.0407 10.5433C35.5487 10.5433 35.1871 10.6121 34.2399 11.0764C31.598 12.3712 30.1184 15.3789 30.3428 18.9977C30.5135 21.7507 31.5422 23.7793 33.4004 25.0272C34.6065 25.8373 35.6108 26.0879 37.2311 25.9834C38.8272 25.8804 39.9697 25.3568 40.9905 24.2608L41.7043 23.4942V24.5708V25.6473H43.4175H45.1307V14.818V3.98877H43.2272H41.3236V8.18311ZM50.7126 10.7217C47.3702 11.7649 45.3243 15.5673 45.9046 19.6568C46.2627 22.1787 47.5173 24.063 49.4781 25.0241C50.3998 25.4759 50.7897 25.5523 52.1737 25.5523C53.6105 25.5523 53.9055 25.4894 54.8086 24.9901C55.3678 24.681 56.0004 24.2108 56.2143 23.9452L56.6034 23.4624L56.4989 24.91C56.3917 26.397 55.9619 27.542 55.2803 28.1574C54.133 29.1928 51.7121 29.3682 49.3748 28.5851C48.5837 28.32 47.914 28.1278 47.8866 28.1576C47.7282 28.3311 47.0681 30.868 47.1478 30.9968C47.2006 31.0821 47.8605 31.3454 48.6143 31.5819C49.7574 31.9406 50.3949 32.0098 52.4592 31.9989C55.6174 31.9826 56.6911 31.6182 58.2933 30.0191C59.1669 29.1472 59.4543 28.6937 59.8089 27.6277C60.2311 26.3582 60.2488 26.0419 60.3158 18.5703L60.3855 10.8283H58.7658H57.1463L57.0207 11.6644L56.895 12.5008L56.1795 11.7866C54.9525 10.5619 52.6574 10.1149 50.7126 10.7217ZM16.0525 16.1954C16.1404 22.0214 16.2411 22.6829 17.2652 24.1578C17.553 24.5724 18.1798 25.141 18.6584 25.4218C19.4375 25.8791 19.7169 25.9323 21.3366 25.9323C23.398 25.9323 23.9637 25.7204 25.276 24.4574L26.0745 23.6887L26.2047 24.6681L26.3349 25.6473H28.0509H29.7672L29.6459 24.3649C29.5791 23.6595 29.5239 20.3254 29.5231 16.9554L29.5218 10.8283H27.6183H25.7147V15.5656C25.7147 18.4437 25.6354 20.5129 25.5128 20.8378C25.2046 21.6536 24.1929 22.5927 23.3896 22.8085C22.5347 23.0382 21.3663 22.7851 20.8983 22.2689C20.0916 21.379 20.0042 20.7356 20.0042 15.6791V10.8283H17.988H15.9716L16.0525 16.1954ZM9.09414 13.6908C10.4885 14.2181 11.2796 15.6169 11.3968 17.7628C11.4897 19.4623 11.268 20.5298 10.6242 21.4835C9.49864 23.1505 6.99056 23.4896 5.56654 22.1673C4.66103 21.3266 4.3953 20.4867 4.3953 18.4637C4.3953 16.508 4.58108 15.6557 5.20106 14.7673C5.95219 13.691 7.76739 13.1891 9.09414 13.6908ZM39.3059 13.753C40.7613 14.3598 41.4881 16.3771 41.2285 19.0893C41.0686 20.7603 40.7941 21.415 39.9398 22.1637C39.1409 22.8638 38.0677 23.099 36.9918 22.8098C35.2527 22.3425 34.4439 21.0718 34.3234 18.6178C34.1694 15.4828 35.5402 13.4927 37.8558 13.4893C38.3041 13.4887 38.9566 13.6072 39.3059 13.753ZM54.9648 13.8873C55.3208 14.1067 55.802 14.6412 56.0342 15.0747C56.4047 15.7661 56.4557 16.1434 56.4496 18.1428C56.4441 19.9114 56.3702 20.5574 56.1203 21.0234C55.1651 22.804 52.7642 23.2802 51.2836 21.9826C50.1796 21.0152 49.8131 20.0883 49.8031 18.2378C49.7909 15.9802 50.5498 14.3324 51.8651 13.7611C52.7811 13.3631 54.2095 13.4212 54.9648 13.8873Z" fill="#9A9A9A"/>
</svg>
