<svg width="94" height="28" viewBox="0 0 94 28" fill="none" xmlns="http://www.w3.org/2000/svg">
<g clip-path="url(#clip0_1861_89929)">
<path d="M9.40428 11.1045C13.0704 9.35115 15.9395 6.37578 17.5865 2.65658C16.5239 1.54081 15.1425 0.743841 13.6548 0.265658L12.8578 0C12.8047 0.106263 12.7516 0.265664 12.7516 0.371927C11.4764 3.98487 8.87297 6.9071 5.36629 8.55418C2.92224 9.72307 1.11576 11.8483 0.265658 14.3986L0 15.1956C0.106263 15.2488 0.26566 15.3019 0.371923 15.3019C1.38142 15.6738 2.39092 16.152 3.34729 16.7364C4.67558 14.3455 6.80083 12.3265 9.40428 11.1045Z" fill="white"/>
<path d="M24.8158 11.3169C22.8499 14.2923 20.1402 16.6832 16.7929 18.2771C14.0832 19.5523 12.0111 21.9432 11.0547 24.8123L10.7891 25.7155C11.7986 26.6188 13.0206 27.3095 14.3489 27.7345L15.1458 28.0002C15.199 27.8939 15.2521 27.7345 15.2521 27.6283C16.5273 24.0153 19.1307 21.0931 22.6374 19.446C25.0814 18.2771 26.941 16.1519 27.738 13.6016L28.0037 12.8046C26.8879 12.4858 25.8253 11.9545 24.8158 11.3169Z" fill="white"/>
<path d="M8.66286 22.9529C9.99115 19.765 12.4352 17.1616 15.57 15.6739C18.4391 14.2925 20.83 12.1672 22.4771 9.56379C21.255 8.3949 20.2455 7.0666 19.5017 5.47266C17.5358 9.0856 14.4542 12.0078 10.6819 13.8143C8.50347 14.8238 6.75013 16.5772 5.6875 18.7024C6.85639 19.8182 7.81276 21.1996 8.5566 22.7404C8.5566 22.7404 8.60973 22.8467 8.66286 22.9529Z" fill="white"/>
<path d="M37.7972 23V4.81818H49.6225V7.57919H41.0909V12.5153H49.0099V15.2763H41.0909V20.239H49.6935V23H37.7972ZM56.6511 23.2397C55.5798 23.2397 54.621 22.9645 53.7747 22.4141C52.9283 21.8636 52.2595 21.0646 51.7683 20.017C51.277 18.9695 51.0314 17.697 51.0314 16.1996C51.0314 14.6844 51.28 13.406 51.7772 12.3643C52.2802 11.3168 52.9579 10.5266 53.8102 9.99396C54.6625 9.45537 55.6124 9.18608 56.66 9.18608C57.459 9.18608 58.1159 9.32221 58.6309 9.59446C59.1458 9.86079 59.5542 10.1834 59.856 10.5621C60.1578 10.935 60.3916 11.2872 60.5574 11.6186H60.6905V4.81818H63.9132V23H60.7527V20.8516H60.5574C60.3916 21.183 60.1519 21.5352 59.8382 21.908C59.5246 22.275 59.1103 22.5887 58.5953 22.8491C58.0804 23.1095 57.4324 23.2397 56.6511 23.2397ZM57.5478 20.603C58.2284 20.603 58.8084 20.4195 59.2878 20.0526C59.7672 19.6797 60.1312 19.1618 60.3798 18.4989C60.6284 17.8361 60.7527 17.0637 60.7527 16.1818C60.7527 15.3 60.6284 14.5335 60.3798 13.8825C60.1371 13.2314 59.7761 12.7254 59.2967 12.3643C58.8232 12.0033 58.2402 11.8228 57.5478 11.8228C56.8316 11.8228 56.2338 12.0092 55.7544 12.3821C55.275 12.755 54.914 13.2699 54.6713 13.9268C54.4287 14.5838 54.3074 15.3355 54.3074 16.1818C54.3074 17.0341 54.4287 17.7946 54.6713 18.4634C54.9199 19.1263 55.2839 19.6501 55.7633 20.0348C56.2486 20.4136 56.8435 20.603 57.5478 20.603ZM71.1482 23.2397C70.0769 23.2397 69.1181 22.9645 68.2718 22.4141C67.4254 21.8636 66.7566 21.0646 66.2654 20.017C65.7741 18.9695 65.5285 17.697 65.5285 16.1996C65.5285 14.6844 65.7771 13.406 66.2742 12.3643C66.7773 11.3168 67.455 10.5266 68.3073 9.99396C69.1595 9.45537 70.1095 9.18608 71.157 9.18608C71.9561 9.18608 72.613 9.32221 73.1279 9.59446C73.6428 9.86079 74.0512 10.1834 74.3531 10.5621C74.6549 10.935 74.8887 11.2872 75.0544 11.6186H75.1876V4.81818H78.4102V23H75.2497V20.8516H75.0544C74.8887 21.183 74.649 21.5352 74.3353 21.908C74.0216 22.275 73.6073 22.5887 73.0924 22.8491C72.5775 23.1095 71.9294 23.2397 71.1482 23.2397ZM72.0448 20.603C72.7255 20.603 73.3055 20.4195 73.7849 20.0526C74.2643 19.6797 74.6283 19.1618 74.8769 18.4989C75.1254 17.8361 75.2497 17.0637 75.2497 16.1818C75.2497 15.3 75.1254 14.5335 74.8769 13.8825C74.6342 13.2314 74.2732 12.7254 73.7938 12.3643C73.3203 12.0033 72.7373 11.8228 72.0448 11.8228C71.3287 11.8228 70.7309 12.0092 70.2515 12.3821C69.7721 12.755 69.4111 13.2699 69.1684 13.9268C68.9258 14.5838 68.8044 15.3355 68.8044 16.1818C68.8044 17.0341 68.9258 17.7946 69.1684 18.4634C69.417 19.1263 69.781 19.6501 70.2604 20.0348C70.7457 20.4136 71.3405 20.603 72.0448 20.603ZM82.5824 28.1136C82.1444 28.1136 81.739 28.0781 81.3661 28.0071C80.9992 27.942 80.7062 27.8651 80.4872 27.7763L81.233 25.2727C81.7005 25.4089 82.1178 25.474 82.4847 25.468C82.8517 25.4621 83.1742 25.3467 83.4524 25.1218C83.7365 24.9028 83.9762 24.5359 84.1715 24.021L84.4467 23.2841L79.5018 9.36364H82.9109L86.0536 19.6619H86.1957L89.3473 9.36364H92.7653L87.3054 24.6513C87.0509 25.3733 86.7135 25.9918 86.2933 26.5067C85.8731 27.0276 85.3582 27.4241 84.7486 27.6964C84.1449 27.9746 83.4228 28.1136 82.5824 28.1136Z" fill="white"/>
</g>
<defs>
<clipPath id="clip0_1861_89929">
<rect width="94.0037" height="28.0002" fill="white"/>
</clipPath>
</defs>
</svg>
