<svg width="118" height="69" viewBox="0 0 118 69" fill="none" xmlns="http://www.w3.org/2000/svg">
<rect x="1.32451" y="30.3871" width="109" height="39" rx="19.5" transform="rotate(-15.5146 1.32451 30.3871)" fill="#141414"/>
<path d="M33.9207 47.8029L27.7055 37.4474L29.4821 36.9542L34.0767 45.0353L34.1821 45.0061L34.0439 35.6879L35.8055 35.1989L40.485 43.2645L40.5979 43.2332L40.3598 33.9346L42.1514 33.4372L42.1411 45.5209L40.4398 45.9932L35.7535 38.2538L35.6632 38.2789L35.637 47.3265L33.9207 47.8029ZM48.9566 43.8154C48.1336 44.0439 47.3715 44.0636 46.6704 43.8744C45.9692 43.6853 45.3657 43.3123 44.8598 42.7555C44.3575 42.1922 43.9858 41.4765 43.7448 40.6083C43.5052 39.7451 43.4522 38.9409 43.5859 38.1957C43.7246 37.4491 44.0316 36.8125 44.507 36.2859C44.9861 35.753 45.6171 35.3778 46.4 35.1605C46.8767 35.0281 47.36 34.9778 47.8499 35.0093C48.3397 35.0409 48.8095 35.1754 49.2591 35.4127C49.7088 35.65 50.111 36.0086 50.4659 36.4885C50.8257 36.967 51.1108 37.5851 51.3212 38.3429L51.4842 38.9301L44.7919 40.7878L44.4513 39.5608L50.3004 37.9371L49.653 38.5547C49.5095 38.0378 49.3024 37.6034 49.0317 37.2515C48.7611 36.8996 48.4345 36.6578 48.052 36.5262C47.6732 36.3881 47.2479 36.3845 46.7761 36.5155C46.3044 36.6465 45.9317 36.8715 45.6582 37.1907C45.3897 37.5085 45.2191 37.8774 45.1465 38.2976C45.074 38.7177 45.099 39.1486 45.2216 39.5902L45.4536 40.4258C45.6138 41.0029 45.85 41.4644 46.1622 41.8101C46.4744 42.1559 46.8379 42.3847 47.2527 42.4966C47.6726 42.6071 48.1209 42.5961 48.5976 42.4638C48.9088 42.3774 49.1773 42.2542 49.4031 42.0942C49.634 41.9328 49.8172 41.736 49.9527 41.5038C50.0883 41.2716 50.1668 41.0093 50.1883 40.7168L51.8205 40.5799C51.8205 41.0664 51.7097 41.5242 51.4883 41.9532C51.2668 42.3822 50.9417 42.759 50.5129 43.0834C50.0876 43.4015 49.5689 43.6455 48.9566 43.8154ZM57.8524 41.3378C57.3456 41.4786 56.9053 41.5089 56.5318 41.4288C56.1618 41.3423 55.852 41.2094 55.6022 41.0301C55.3574 40.8494 55.1605 40.6852 55.0114 40.5374L54.8759 40.575L55.2395 41.8848L53.6586 42.3237L50.5449 31.1072L52.171 30.6558L53.3287 34.8262L53.419 34.8012C53.4706 34.5977 53.5522 34.3561 53.6638 34.0765C53.7803 33.7955 53.9755 33.5251 54.2494 33.2653C54.5218 33.0005 54.9165 32.7963 55.4334 32.6528C56.1109 32.4647 56.7605 32.4682 57.3822 32.6632C58.0089 32.8568 58.5651 33.2348 59.051 33.7972C59.5368 34.3596 59.9065 35.0975 60.1601 36.0109C60.4108 36.9142 60.4762 37.7339 60.3562 38.4699C60.2348 39.2009 59.9569 39.8158 59.5225 40.3148C59.0916 40.8074 58.535 41.1484 57.8524 41.3378ZM57.112 40.0434C57.5988 39.9083 57.9691 39.665 58.2229 39.3134C58.4766 38.9619 58.6243 38.5398 58.666 38.0472C58.7112 37.5482 58.6558 37.0176 58.4998 36.4555C58.3451 35.8985 58.1237 35.4221 57.8355 35.0265C57.5473 34.6308 57.2046 34.3503 56.8073 34.1849C56.41 34.0195 55.9655 34.0051 55.4737 34.1416C54.9969 34.2739 54.6296 34.5084 54.3716 34.8448C54.1123 35.1763 53.9586 35.5865 53.9106 36.0755C53.8662 36.5581 53.9255 37.0929 54.0885 37.6801C54.2515 38.2673 54.4803 38.7605 54.7749 39.1598C55.0695 39.5591 55.4148 39.8389 55.8106 39.9993C56.2115 40.1583 56.6453 40.173 57.112 40.0434ZM64.1799 30.3383L64.5456 31.6557L59.7955 32.9743L59.4298 31.6569L64.1799 30.3383ZM63.0609 39.7136L60.4529 30.3189C60.308 29.7969 60.3029 29.3308 60.4377 28.9204C60.576 28.5037 60.8097 28.1577 61.1387 27.8826C61.4714 27.6011 61.856 27.3997 62.2926 27.2785C62.6289 27.1852 62.9226 27.1333 63.1738 27.1231C63.425 27.1128 63.6114 27.1124 63.7329 27.1219L63.7093 28.5555C63.627 28.5513 63.5215 28.5508 63.3927 28.5542C63.2689 28.5561 63.1192 28.5814 62.9435 28.6302C62.5471 28.7403 62.2889 28.92 62.169 29.1695C62.0476 29.414 62.0392 29.7245 62.1437 30.1009L64.6869 39.2622L63.0609 39.7136ZM66.0673 26.7982L69.181 38.0147L67.555 38.466L64.4413 27.2496L66.0673 26.7982ZM74.3254 36.7731C73.5375 36.9918 72.7973 37.0027 72.1048 36.8057C71.4173 36.6074 70.8199 36.2273 70.3126 35.6654C69.8103 35.1022 69.4394 34.389 69.1997 33.5258C68.9573 32.6525 68.9062 31.8451 69.0462 31.1036C69.1899 30.3556 69.5052 29.7194 69.9921 29.1951C70.484 28.6694 71.1239 28.2971 71.9118 28.0784C72.7047 27.8583 73.4449 27.8474 74.1324 28.0457C74.8199 28.2441 75.418 28.6267 75.9267 29.1936C76.434 29.7554 76.8089 30.473 77.0513 31.3462C77.2909 32.2094 77.3382 33.0125 77.1931 33.7554C77.048 34.4984 76.732 35.1321 76.2451 35.6564C75.7582 36.1807 75.1184 36.5529 74.3254 36.7731ZM73.943 35.3955C74.4599 35.252 74.8489 34.9981 75.1099 34.6337C75.3709 34.2694 75.5197 33.8416 75.5563 33.3504C75.5965 32.8527 75.5428 32.3379 75.3951 31.8059C75.2447 31.2639 75.024 30.7901 74.733 30.3844C74.447 29.9773 74.0983 29.6849 73.6868 29.5073C73.2753 29.3296 72.8111 29.3125 72.2942 29.456C71.7823 29.5981 71.3959 29.8513 71.1349 30.2157C70.8789 30.5786 70.7307 31.0089 70.6905 31.5066C70.6503 32.0042 70.7054 32.524 70.8559 33.066C71.0035 33.598 71.2229 34.0668 71.5139 34.4725C71.8035 34.8732 72.1515 35.1631 72.558 35.3421C72.9694 35.5198 73.4311 35.5376 73.943 35.3955ZM80.947 34.7484L76.1416 27.0177L77.8278 26.5496L81.1921 32.2723L81.2824 32.2473L81.2153 25.6093L82.9091 25.1391L86.252 30.8434L86.3348 30.8204L86.2665 24.2071L87.9527 23.739L87.8199 32.8405L86.1563 33.3023L82.7556 27.7114L82.6427 27.7427L82.6107 34.2866L80.947 34.7484Z" fill="white"/>
<rect x="1.32451" y="30.3871" width="109" height="39" rx="19.5" transform="rotate(-15.5146 1.32451 30.3871)" stroke="#303030"/>
</svg>
