<svg width="92" height="40" viewBox="0 0 92 40" fill="none" xmlns="http://www.w3.org/2000/svg">
<rect x="0.5" y="0.5" width="91" height="39" rx="19.5" fill="#141414"/>
<path d="M24.9375 26V14.3594H32.1641V15.8672H26.6953V19.6406H31.6406V21.1406H26.6953V26H24.9375ZM33.5156 26V17.2656H35.2031V26H33.5156ZM34.3672 15.9219C34.0703 15.9219 33.8177 15.8229 33.6094 15.625C33.401 15.4271 33.2969 15.1901 33.2969 14.9141C33.2969 14.6328 33.401 14.3932 33.6094 14.1953C33.8177 13.9974 34.0703 13.8984 34.3672 13.8984C34.6589 13.8984 34.9089 13.9974 35.1172 14.1953C35.3307 14.3932 35.4375 14.6328 35.4375 14.9141C35.4375 15.1901 35.3307 15.4271 35.1172 15.625C34.9089 15.8229 34.6589 15.9219 34.3672 15.9219ZM40.4688 29.4531C39.4271 29.4531 38.6068 29.2578 38.0078 28.8672C37.4089 28.4766 36.9948 28.013 36.7656 27.4766L38.2188 26.875C38.3229 27.0417 38.4609 27.2188 38.6328 27.4062C38.8099 27.5938 39.0469 27.7526 39.3438 27.8828C39.6406 28.013 40.0234 28.0781 40.4922 28.0781C41.1328 28.0781 41.6641 27.9219 42.0859 27.6094C42.5078 27.3021 42.7188 26.8073 42.7188 26.125V24.4141H42.6016C42.5078 24.5964 42.3646 24.8021 42.1719 25.0312C41.9792 25.2552 41.7161 25.4505 41.3828 25.6172C41.0495 25.7839 40.6146 25.8672 40.0781 25.8672C39.3906 25.8672 38.7708 25.7057 38.2188 25.3828C37.6719 25.0547 37.2344 24.5755 36.9062 23.9453C36.5833 23.3099 36.4219 22.5286 36.4219 21.6016C36.4219 20.6745 36.5807 19.8802 36.8984 19.2188C37.2214 18.5521 37.6589 18.0417 38.2109 17.6875C38.763 17.3333 39.3906 17.1562 40.0938 17.1562C40.6354 17.1562 41.0729 17.2474 41.4062 17.4297C41.7448 17.6068 42.0078 17.8151 42.1953 18.0547C42.3828 18.2943 42.5286 18.5052 42.6328 18.6875H42.7578V17.2656H44.4062V26.1953C44.4062 26.9453 44.2318 27.5599 43.8828 28.0391C43.5391 28.5182 43.0703 28.8724 42.4766 29.1016C41.8828 29.3359 41.2135 29.4531 40.4688 29.4531ZM40.4531 24.4531C41.1875 24.4531 41.75 24.2005 42.1406 23.6953C42.5365 23.1849 42.7344 22.4792 42.7344 21.5781C42.7344 20.9896 42.6484 20.474 42.4766 20.0312C42.3047 19.5833 42.0495 19.2344 41.7109 18.9844C41.3724 18.7292 40.9531 18.6016 40.4531 18.6016C39.9427 18.6016 39.5156 18.7344 39.1719 19C38.8333 19.2604 38.5781 19.6172 38.4062 20.0703C38.2344 20.5182 38.1484 21.0208 38.1484 21.5781C38.1484 22.1458 38.2344 22.6484 38.4062 23.0859C38.5781 23.5182 38.8359 23.8542 39.1797 24.0938C39.5286 24.3333 39.9531 24.4531 40.4531 24.4531ZM46.0312 26V17.2656H47.6484V18.7031H47.7656C47.9479 18.2188 48.2448 17.8411 48.6562 17.5703C49.0729 17.2943 49.5677 17.1562 50.1406 17.1562C50.724 17.1562 51.2109 17.2943 51.6016 17.5703C51.9974 17.8411 52.2917 18.2188 52.4844 18.7031H52.5781C52.7865 18.2292 53.1172 17.8542 53.5703 17.5781C54.0234 17.2969 54.5625 17.1562 55.1875 17.1562C55.9792 17.1562 56.6276 17.4062 57.1328 17.9062C57.638 18.401 57.8906 19.1484 57.8906 20.1484V26H56.1875V20.3047C56.1875 19.7109 56.026 19.2839 55.7031 19.0234C55.3802 18.7578 54.9948 18.625 54.5469 18.625C53.9948 18.625 53.5651 18.7969 53.2578 19.1406C52.9557 19.4792 52.8047 19.9089 52.8047 20.4297V26H51.1016V20.1953C51.1016 19.7214 50.9557 19.3411 50.6641 19.0547C50.3724 18.7682 49.9896 18.625 49.5156 18.625C49.1927 18.625 48.8932 18.7109 48.6172 18.8828C48.3464 19.0495 48.1276 19.2839 47.9609 19.5859C47.7995 19.8828 47.7188 20.2266 47.7188 20.6172V26H46.0312ZM62.0469 26.1875C61.4948 26.1875 60.9948 26.0859 60.5469 25.8828C60.099 25.6745 59.7448 25.3724 59.4844 24.9766C59.224 24.5807 59.0938 24.099 59.0938 23.5312C59.0938 23.0365 59.1875 22.6328 59.375 22.3203C59.5677 22.0026 59.8255 21.75 60.1484 21.5625C60.4714 21.375 60.8307 21.2344 61.2266 21.1406C61.6224 21.0469 62.0286 20.974 62.4453 20.9219C62.9714 20.8646 63.3958 20.8151 63.7188 20.7734C64.0417 20.7318 64.276 20.6667 64.4219 20.5781C64.5729 20.4844 64.6484 20.3359 64.6484 20.1328V20.0938C64.6484 19.599 64.5078 19.2161 64.2266 18.9453C63.9505 18.6745 63.5391 18.5391 62.9922 18.5391C62.4245 18.5391 61.974 18.6641 61.6406 18.9141C61.3125 19.1589 61.0859 19.4375 60.9609 19.75L59.3594 19.3828C59.5521 18.8516 59.8307 18.4245 60.1953 18.1016C60.5651 17.7734 60.987 17.5339 61.4609 17.3828C61.9401 17.2318 62.4401 17.1562 62.9609 17.1562C63.3099 17.1562 63.6797 17.1979 64.0703 17.2812C64.4609 17.3594 64.8281 17.5078 65.1719 17.7266C65.5208 17.9401 65.8047 18.2474 66.0234 18.6484C66.2422 19.0495 66.3516 19.5677 66.3516 20.2031V26H64.6875V24.8047H64.625C64.5208 25.0182 64.3568 25.2318 64.1328 25.4453C63.9141 25.6589 63.6328 25.8359 63.2891 25.9766C62.9453 26.1172 62.5312 26.1875 62.0469 26.1875ZM62.4141 24.8281C62.888 24.8281 63.2917 24.737 63.625 24.5547C63.9583 24.3672 64.2135 24.1224 64.3906 23.8203C64.5677 23.5182 64.6562 23.1979 64.6562 22.8594V21.7266C64.5938 21.7839 64.4766 21.8385 64.3047 21.8906C64.1328 21.9427 63.9375 21.987 63.7188 22.0234C63.5 22.0599 63.2865 22.0938 63.0781 22.125C62.8698 22.151 62.6953 22.1719 62.5547 22.1875C62.2266 22.2344 61.9271 22.3073 61.6562 22.4062C61.3854 22.5 61.1667 22.6406 61 22.8281C60.8385 23.0104 60.7578 23.2526 60.7578 23.5547C60.7578 23.9766 60.9141 24.2943 61.2266 24.5078C61.5391 24.7214 61.9349 24.8281 62.4141 24.8281Z" fill="white"/>
<rect x="0.5" y="0.5" width="91" height="39" rx="19.5" stroke="#303030"/>
</svg>
