<svg width="97" height="64" viewBox="0 0 97 64" fill="none" xmlns="http://www.w3.org/2000/svg">
<rect x="12.3704" y="1.39209" width="87" height="38" rx="19" transform="rotate(16.6944 12.3704 1.39209)" fill="#141414"/>
<rect x="12.3704" y="1.39209" width="87" height="38" rx="19" transform="rotate(16.6944 12.3704 1.39209)" stroke="#303030"/>
<path d="M33.2991 24.2895C33.3955 23.7568 33.2758 23.2859 32.9398 22.8767C32.6049 22.4638 32.1181 22.1617 31.4795 21.9702C31.0224 21.8331 30.6052 21.787 30.2278 21.832C29.8516 21.8734 29.5334 21.9915 29.2733 22.1864C29.0179 22.3787 28.8429 22.6327 28.7482 22.9483C28.6688 23.2132 28.6619 23.4603 28.7276 23.6896C28.7969 23.92 28.9136 24.1309 29.0776 24.3225C29.2463 24.5115 29.4355 24.6849 29.6452 24.8427C29.856 24.9969 30.0621 25.1338 30.2635 25.2535L31.2671 25.863C31.5965 26.0567 31.9258 26.284 32.2549 26.5448C32.584 26.8056 32.8717 27.1055 33.1181 27.4443C33.3645 27.7832 33.5318 28.1616 33.62 28.5795C33.7118 28.9986 33.6826 29.4584 33.5325 29.9591C33.3431 30.5904 33.0118 31.102 32.5383 31.4939C32.0685 31.8869 31.4828 32.1324 30.7811 32.2304C30.083 32.3295 29.2986 32.2485 28.4279 31.9873C27.5934 31.737 26.9111 31.3881 26.381 30.9404C25.8509 30.4927 25.4864 29.9741 25.2875 29.3846C25.0897 28.7914 25.0733 28.1538 25.2384 27.4717L26.9255 27.9776C26.8374 28.3902 26.8673 28.7649 27.0154 29.102C27.1681 29.4365 27.4045 29.7229 27.7246 29.9612C28.0493 30.197 28.4275 30.3797 28.8593 30.5092C29.3346 30.6517 29.7796 30.7041 30.1943 30.6663C30.6137 30.626 30.9707 30.5037 31.2653 30.2995C31.561 30.0915 31.7632 29.8062 31.872 29.4433C31.971 29.1132 31.9578 28.8146 31.8322 28.5476C31.7103 28.2816 31.5104 28.0319 31.2324 27.7982C30.9581 27.5657 30.6372 27.337 30.2696 27.112L29.0603 26.3579C28.2407 25.8471 27.6404 25.2775 27.2594 24.6492C26.882 24.0219 26.8097 23.32 27.0426 22.5436C27.2352 21.9014 27.5774 21.3931 28.0694 21.0186C28.5613 20.6441 29.1445 20.4137 29.819 20.3273C30.4945 20.2373 31.206 20.3043 31.9534 20.5285C32.7081 20.7548 33.3342 21.0869 33.8316 21.5248C34.3327 21.9637 34.6805 22.4655 34.875 23.03C35.0706 23.5909 35.0859 24.1729 34.9209 24.7759L33.2991 24.2895ZM36.0683 30.9866L36.6532 28.9969L36.9362 29.0817L41.3279 26.5431L43.2762 27.1275L38.2696 30.0155L38.0138 29.9388L36.0683 30.9866ZM33.7213 33.3732L37.0641 22.2273L38.6913 22.7153L35.3486 33.8612L33.7213 33.3732ZM39.0004 34.9564L37.1986 30.0858L38.6609 29.2846L40.9977 35.5554L39.0004 34.9564ZM44.6939 36.8478C43.8703 36.6008 43.2138 36.2121 42.7243 35.6817C42.2395 35.1488 41.932 34.5128 41.8017 33.7738C41.6761 33.0322 41.7433 32.2278 42.0034 31.3607C42.2602 30.5044 42.6461 29.7976 43.1613 29.2403C43.6801 28.6841 44.2828 28.3093 44.9696 28.1158C45.66 27.9235 46.3935 27.9437 47.1699 28.1766C47.6416 28.318 48.0753 28.5331 48.4712 28.8219C48.8671 29.1107 49.1909 29.4747 49.4427 29.9141C49.6946 30.3534 49.8421 30.8702 49.8853 31.4645C49.9296 32.0552 49.8381 32.7297 49.6106 33.488L49.4376 34.0648L42.7925 32.0719L43.1582 30.8528L48.2086 32.3675C48.337 31.9394 48.3637 31.5341 48.2885 31.1517C48.2145 30.7657 48.0485 30.4292 47.7905 30.1422C47.5361 29.8564 47.1985 29.6503 46.7776 29.5241C46.3205 29.387 45.8877 29.3798 45.4791 29.5024C45.0753 29.6226 44.7271 29.8345 44.4343 30.1382C44.1462 30.4393 43.9397 30.7985 43.8145 31.2158L43.5289 32.1682C43.3613 32.7269 43.3167 33.2316 43.3951 33.6822C43.4772 34.1339 43.665 34.5165 43.9585 34.8299C44.2531 35.1398 44.6381 35.3659 45.1134 35.5085C45.4218 35.601 45.716 35.6418 45.9961 35.6309C46.2773 35.6163 46.5371 35.5479 46.7754 35.4256C47.0138 35.3033 47.2211 35.1263 47.3974 34.8944L48.8544 35.6339C48.595 36.0504 48.2545 36.3813 47.8329 36.6266C47.4161 36.8694 46.9399 37.0133 46.4044 37.0583C45.8736 37.1008 45.3034 37.0306 44.6939 36.8478ZM55.7794 30.8773L55.3877 32.1834L50.8216 30.814L51.2133 29.5079L55.7794 30.8773ZM53.0385 27.8723L54.6657 28.3604L52.2942 36.2681C52.1995 36.5837 52.1754 36.8355 52.2218 37.0234C52.2694 37.2078 52.3588 37.3512 52.4902 37.4539C52.6262 37.554 52.7832 37.6308 52.9609 37.6841C53.0916 37.7232 53.2086 37.7484 53.312 37.7597C53.4154 37.7709 53.4959 37.7793 53.5536 37.7847L53.4443 39.2171C53.3391 39.2251 53.194 39.2211 53.009 39.2052C52.8228 39.1928 52.5986 39.1493 52.3363 39.0746C51.906 38.9535 51.5297 38.7576 51.2075 38.4869C50.8853 38.2163 50.66 37.8798 50.5315 37.4775C50.4031 37.0751 50.4144 36.6218 50.5657 36.1175L53.0385 27.8723ZM57.6869 40.7446C56.8778 40.5019 56.2362 40.1098 55.7619 39.5681C55.2924 39.0239 54.999 38.3803 54.8818 37.6373C54.7645 36.8943 54.8316 36.1037 55.0829 35.2656C55.3375 34.4166 55.7219 33.7152 56.2359 33.1615C56.7511 32.6042 57.3539 32.2294 58.0443 32.037C58.7347 31.8447 59.4736 31.8665 60.2609 32.1027C60.8958 32.2931 61.4265 32.5808 61.8528 32.9657C62.2802 33.347 62.5832 33.7937 62.7618 34.306C62.944 34.8194 62.9797 35.3659 62.8691 35.9457L61.2854 35.4708C61.3158 35.0528 61.2175 34.6555 60.9903 34.2789C60.7668 33.9035 60.3956 33.6379 59.8768 33.4823C59.4233 33.3463 58.9901 33.3469 58.5772 33.484C58.1691 33.6187 57.8048 33.8772 57.4845 34.2596C57.1652 34.6385 56.9164 35.1254 56.7379 35.7204C56.5551 36.3299 56.4899 36.8838 56.5422 37.3819C56.5944 37.8801 56.7528 38.3013 57.0174 38.6456C57.2855 38.9909 57.65 39.2327 58.1108 39.3709C58.4192 39.4634 58.7154 39.4909 58.9995 39.4536C59.2883 39.4136 59.55 39.3122 59.7848 39.1493C60.0231 38.9874 60.2219 38.7663 60.3812 38.4858L61.9649 38.9608C61.7447 39.484 61.424 39.9138 61.0028 40.2501C60.5816 40.5865 60.0878 40.8022 59.5215 40.8973C58.9588 40.9935 58.3473 40.9426 57.6869 40.7446ZM65.2614 37.4225L63.7728 42.3859L62.1455 41.8978L65.4883 30.7519L67.0938 31.2334L65.85 35.3805L65.9534 35.4115C66.2843 35.0204 66.6908 34.7528 67.173 34.6087C67.6551 34.4646 68.2209 34.49 68.8704 34.6847C69.4437 34.8567 69.909 35.1247 70.2664 35.489C70.6274 35.8543 70.8557 36.3063 70.9511 36.8451C71.0513 37.3813 70.9969 37.9978 70.788 38.6944L69.1934 44.0115L67.5661 43.5235L69.102 38.4023C69.2859 37.7891 69.2706 37.2665 69.0562 36.8344C68.8428 36.3987 68.4549 36.0965 67.8925 35.9278C67.508 35.8125 67.1388 35.7907 66.7851 35.8626C66.4349 35.9356 66.1255 36.1037 65.8567 36.3672C65.5925 36.6281 65.3941 36.9798 65.2614 37.4225Z" fill="white"/>
</svg>
