<svg width="96" height="62" viewBox="0 0 96 62" fill="none" xmlns="http://www.w3.org/2000/svg">
<rect x="1.19212" y="24.4484" width="87" height="38" rx="19" transform="rotate(-15.2644 1.19212 24.4484)" fill="#141414"/>
<rect x="1.19212" y="24.4484" width="87" height="38" rx="19" transform="rotate(-15.2644 1.19212 24.4484)" stroke="#303030"/>
<path d="M28.4821 30.3342L30.5377 29.7732L36.493 37.5243L36.6245 37.4884L37.8169 27.7867L39.8724 27.2257L42.936 38.4516L41.3245 38.8914L39.1076 30.768L39.0034 30.7964L37.9051 39.8069L36.5676 40.1719L31.043 32.9629L30.9388 32.9914L33.1572 41.1202L31.5457 41.56L28.4821 30.3342ZM46.9962 37.5438C46.4627 37.6894 45.9534 37.7224 45.4683 37.6427C44.9823 37.5594 44.5613 37.3621 44.2055 37.0509C43.8533 36.7387 43.6019 36.3067 43.4513 35.7549C43.3217 35.2798 43.3063 34.8639 43.4052 34.5071C43.5042 34.1503 43.6845 33.8399 43.9463 33.5761C44.208 33.3123 44.5183 33.0823 44.877 32.8863C45.2358 32.6902 45.6079 32.5141 45.9932 32.3579C46.4815 32.1618 46.8779 32.0026 47.1821 31.8803C47.4854 31.7543 47.6964 31.628 47.815 31.5014C47.9335 31.3748 47.9659 31.2129 47.9121 31.0155L47.9016 30.9772C47.7709 30.4985 47.5345 30.1645 47.1923 29.9752C46.8537 29.7848 46.4195 29.762 45.8897 29.9066C45.3379 30.0572 44.9364 30.2983 44.6853 30.6299C44.4369 30.9568 44.2927 31.2847 44.2529 31.6136L42.6169 31.6832C42.66 31.1217 42.8141 30.636 43.0791 30.226C43.3468 29.8113 43.6915 29.4699 44.113 29.2018C44.5336 28.9299 44.9978 28.7247 45.5057 28.5861C45.8419 28.4943 46.2092 28.4373 46.6075 28.415C47.0085 28.388 47.4018 28.4338 47.7876 28.5523C48.177 28.6699 48.5305 28.8934 48.8481 29.2229C49.1648 29.5488 49.4069 30.0186 49.5744 30.6326L51.1002 36.2236L49.4997 36.6604L49.1855 35.5093L49.1197 35.5272C49.0716 35.7681 48.9695 36.0198 48.8134 36.2822C48.6573 36.5447 48.4314 36.7889 48.1358 37.0149C47.8401 37.2408 47.4603 37.4171 46.9962 37.5438ZM46.9935 36.131C47.4466 36.0074 47.8095 35.8121 48.0822 35.5453C48.3586 35.2775 48.5414 34.9763 48.6307 34.6418C48.7227 34.3026 48.7233 33.9667 48.6326 33.6341L48.3364 32.5488C48.2939 32.6233 48.1956 32.709 48.0414 32.806C47.8899 32.8984 47.7132 32.9918 47.5112 33.0862C47.3083 33.1769 47.1103 33.2643 46.9173 33.3484C46.7233 33.4288 46.5612 33.4966 46.4309 33.5518C46.124 33.6787 45.8519 33.8256 45.6148 33.9924C45.3812 34.1583 45.2103 34.3521 45.1021 34.5741C44.9965 34.7914 44.9835 35.0462 45.0633 35.3385C45.174 35.7441 45.4076 36.0102 45.7641 36.1367C46.1196 36.2596 46.5294 36.2577 46.9935 36.131ZM52.336 35.8863L52.0293 34.7626L55.0087 27.7243L54.9877 27.6475L50.5752 28.8517L50.1863 27.4265L56.6434 25.6644L56.9695 26.8593L54.1461 33.7786L54.167 33.8553L58.7056 32.6167L59.0945 34.0419L52.336 35.8863ZM63.6902 32.9703C62.8606 33.1967 62.0979 33.2144 61.4018 33.0235C60.7085 32.8279 60.1109 32.4511 59.6092 31.8931C59.1101 31.3304 58.7414 30.6124 58.503 29.739C58.2677 28.8766 58.221 28.0726 58.3631 27.3271C58.5088 26.5806 58.8218 25.9435 59.3021 25.4159C59.7861 24.8872 60.4191 24.5162 61.2011 24.3028C61.6761 24.1732 62.158 24.1261 62.6467 24.1615C63.1354 24.197 63.6029 24.3345 64.0491 24.5739C64.4953 24.8134 64.894 25.1738 65.2452 25.6551C65.5955 26.1328 65.8748 26.7535 66.0832 27.5172L66.2418 28.0982L59.549 29.9247L59.214 28.6969L64.3007 27.3087C64.183 26.8775 63.9911 26.5196 63.7249 26.2349C63.4578 25.9466 63.1388 25.749 62.768 25.642C62.4009 25.5341 62.0054 25.538 61.5815 25.6537C61.1211 25.7794 60.75 26.0023 60.4684 26.3226C60.1894 26.6383 60.006 27.0024 59.9184 27.4151C59.8334 27.823 59.8483 28.2372 59.963 28.6574L60.2247 29.6166C60.3783 30.1794 60.6076 30.6312 60.9126 30.972C61.2213 31.3118 61.5832 31.537 61.9981 31.6475C62.4121 31.7544 62.8584 31.7426 63.3371 31.6119C63.6477 31.5272 63.919 31.406 64.1508 31.2485C64.3817 31.0874 64.5659 30.8918 64.7034 30.6619C64.8409 30.432 64.9231 30.172 64.9499 29.882L66.5774 29.7382C66.5779 30.2289 66.4641 30.6898 66.2363 31.1211C66.0111 31.5477 65.6833 31.9218 65.2528 32.2435C64.8249 32.5605 64.3041 32.8028 63.6902 32.9703Z" fill="white"/>
</svg>
