<svg width="97" height="63" viewBox="0 0 97 63" fill="none" xmlns="http://www.w3.org/2000/svg">
<rect x="1.5027" y="25.0121" width="87" height="38" rx="19" transform="rotate(-16.2414 1.5027 25.0121)" fill="#141414"/>
<rect x="1.5027" y="25.0121" width="87" height="38" rx="19" transform="rotate(-16.2414 1.5027 25.0121)" stroke="#303030"/>
<path d="M32.7306 29.3133L34.7763 28.7173L40.8629 36.3657L40.9938 36.3276L42.0206 26.607L44.0663 26.0111L47.3208 37.183L45.717 37.6502L43.3619 29.5658L43.2583 29.596L42.3137 38.6239L40.9827 39.0116L35.3359 31.898L35.2323 31.9282L37.589 40.018L35.9852 40.4852L32.7306 29.3133ZM48.8725 36.731L46.4316 28.352L48.0627 27.8769L50.5036 36.2559L48.8725 36.731ZM46.8787 26.8192C46.595 26.9019 46.3238 26.8783 46.0651 26.7485C45.8089 26.614 45.6422 26.414 45.5648 26.1486C45.4864 25.8794 45.5197 25.6212 45.6646 25.3738C45.8121 25.1218 46.0277 24.9544 46.3114 24.8718C46.595 24.7891 46.865 24.8151 47.1211 24.9495C47.3799 25.0793 47.5484 25.2788 47.6268 25.5479C47.7042 25.8134 47.6691 26.0721 47.5216 26.3242C47.3767 26.5716 47.1624 26.7366 46.8787 26.8192ZM51.9298 35.8404L49.4889 27.4614L51.0654 27.0022L51.4532 28.3332L51.5404 28.3078C51.5618 27.8123 51.7276 27.3793 52.0379 27.0088C52.3508 26.6336 52.7527 26.3745 53.2436 26.2315C53.3454 26.2018 53.4665 26.1705 53.6068 26.1375C53.7508 26.1035 53.8643 26.0803 53.9475 26.0679L54.402 27.628C54.3313 27.6289 54.2091 27.6428 54.0354 27.6697C53.8607 27.693 53.6897 27.729 53.5224 27.7777C53.1369 27.89 52.8171 28.072 52.5629 28.3236C52.3113 28.5704 52.1401 28.863 52.0492 29.2011C51.9573 29.5356 51.9643 29.8847 52.0703 30.2484L53.5608 35.3652L51.9298 35.8404ZM60.3359 33.575C59.5504 33.8039 58.8124 33.8236 58.1221 33.6341C57.4317 33.4446 56.8303 33.0734 56.3181 32.5203C55.8059 31.9673 55.4237 31.258 55.1715 30.3924C54.9183 29.5233 54.8587 28.7161 54.9928 27.9708C55.1268 27.2255 55.4341 26.5876 55.9148 26.057C56.3954 25.5264 57.0285 25.1467 57.814 24.9179C58.5995 24.689 59.3375 24.6693 60.0279 24.8588C60.7183 25.0483 61.3201 25.4214 61.8334 25.978C62.3467 26.5347 62.73 27.2477 62.9832 28.1168C63.2353 28.9824 63.2938 29.7859 63.1588 30.5276C63.0237 31.2692 62.7158 31.9053 62.2352 32.4359C61.7545 32.9665 61.1215 33.3462 60.3359 33.575ZM59.9425 32.2042C60.4517 32.0559 60.8343 31.7985 61.0905 31.4319C61.3467 31.0653 61.4896 30.635 61.5193 30.1411C61.5527 29.6461 61.491 29.1295 61.3342 28.5913C61.1784 28.0567 60.9536 27.5896 60.6596 27.1899C60.3682 26.7856 60.0155 26.4958 59.6015 26.3205C59.1875 26.1452 58.7259 26.1317 58.2167 26.28C57.704 26.4294 57.3182 26.6897 57.0594 27.061C56.8043 27.4312 56.6606 27.8657 56.6283 28.3643C56.5986 28.8582 56.6616 29.3725 56.8174 29.9071C56.9742 30.4453 57.1977 30.9148 57.488 31.3155C57.782 31.7151 58.1355 32.0008 58.5484 32.1724C58.965 32.343 59.4297 32.3536 59.9425 32.2042Z" fill="white"/>
</svg>
