<svg width="96" height="61" viewBox="0 0 96 61" fill="none" xmlns="http://www.w3.org/2000/svg">
<rect x="10.3408" y="0.653654" width="87" height="38" rx="19" transform="rotate(14.7277 10.3408 0.653654)" fill="#141414"/>
<rect x="10.3408" y="0.653654" width="87" height="38" rx="19" transform="rotate(14.7277 10.3408 0.653654)" stroke="#303030"/>
<path d="M25.8505 30.0623L26.1481 28.9303L34.3428 21.8256L28.3751 20.2569L28.7593 18.7952L36.8042 20.9099L36.5067 22.0419L28.3119 29.1466L34.2797 30.7152L33.8954 32.177L25.8505 30.0623ZM38.7122 33.6252C37.8806 33.4066 37.2111 33.0407 36.7037 32.5274C36.2009 32.0114 35.8718 31.3864 35.7162 30.6522C35.5652 29.9154 35.6048 29.1092 35.8349 28.2336C36.0622 27.3691 36.4237 26.6495 36.9194 26.0748C37.4188 25.5011 38.0083 25.1058 38.6881 24.8889C39.3715 24.6729 40.1052 24.668 40.8892 24.8741C41.3654 24.9993 41.8063 25.1994 42.2118 25.4744C42.6174 25.7494 42.9535 26.1021 43.2203 26.5326C43.487 26.963 43.6522 27.4745 43.7158 28.0669C43.7804 28.6557 43.712 29.3329 43.5107 30.0986L43.3576 30.6811L36.6481 28.9174L36.9716 27.6865L42.0711 29.0269C42.1847 28.5946 42.1974 28.1887 42.1092 27.8091C42.022 27.4258 41.8445 27.0952 41.5768 26.8173C41.3128 26.5403 40.9683 26.346 40.5434 26.2343C40.0818 26.1129 39.649 26.1206 39.2449 26.2572C38.8454 26.3911 38.5046 26.6149 38.2225 26.9284C37.9449 27.2393 37.7508 27.6054 37.64 28.0267L37.3873 28.9883C37.239 29.5525 37.2117 30.0584 37.3056 30.506C37.403 30.9547 37.6038 31.3306 37.908 31.6337C38.2131 31.9333 38.6056 32.1461 39.0855 32.2722C39.3969 32.3541 39.6923 32.3848 39.9719 32.3643C40.2524 32.3401 40.5097 32.2628 40.7437 32.1324C40.9777 32.002 41.1788 31.8179 41.3471 31.5802L42.8285 32.2692C42.5836 32.6944 42.2547 33.0368 41.8418 33.2964C41.4335 33.5533 40.9626 33.7135 40.4289 33.7769C39.8999 33.8375 39.3277 33.787 38.7122 33.6252ZM42.5956 37.8478L45.6463 26.242L47.2509 26.6638L46.8912 28.0321L47.0286 28.0682C47.17 27.9174 47.3609 27.7502 47.601 27.5666C47.8412 27.383 48.1433 27.247 48.5073 27.1586C48.8722 27.0665 49.3166 27.0893 49.8405 27.227C50.5219 27.4062 51.0847 27.7382 51.5291 28.2231C51.9734 28.7081 52.2624 29.3148 52.396 30.0431C52.5333 30.7724 52.4821 31.5932 52.2423 32.5054C52.0025 33.4176 51.6449 34.1597 51.1694 34.7319C50.6949 35.3004 50.1458 35.6907 49.5222 35.9028C48.8995 36.1111 48.2474 36.1258 47.566 35.9467C47.0532 35.8119 46.6563 35.6155 46.3756 35.3576C46.0984 35.1007 45.8986 34.8328 45.7761 34.5538C45.6536 34.2749 45.5665 34.0326 45.5148 33.8271L45.4159 33.8011L44.2386 38.2797L42.5956 37.8478ZM46.147 30.8855C45.991 31.479 45.9403 32.0219 45.995 32.5141C46.0497 33.0062 46.2069 33.4216 46.4665 33.7601C46.7271 34.0949 47.0936 34.3244 47.5662 34.4486C48.0571 34.5777 48.5016 34.5555 48.8997 34.382C49.2987 34.2049 49.6417 33.9132 49.9287 33.5069C50.2193 33.1016 50.4388 32.6168 50.5871 32.0527C50.7334 31.4958 50.7806 30.9736 50.7286 30.486C50.6803 29.9994 50.5232 29.5841 50.2572 29.24C49.9949 28.8969 49.6165 28.6604 49.1219 28.5304C48.6456 28.4052 48.2104 28.422 47.8162 28.5808C47.4256 28.7405 47.0883 29.018 46.8042 29.4133C46.5202 29.8087 46.3011 30.2994 46.147 30.8855ZM56.8057 26.1675L53.8475 37.4216L52.2044 36.9897L55.1627 25.7356L56.8057 26.1675ZM55.2842 37.7992L57.5029 29.3587L59.1459 29.7906L56.9272 38.2311L55.2842 37.7992ZM58.675 28.2744C58.3892 28.1993 58.1688 28.0396 58.0137 27.7951C57.8633 27.548 57.8232 27.2907 57.8935 27.0233C57.9648 26.7522 58.1262 26.5479 58.3777 26.4104C58.6339 26.2701 58.9049 26.2376 59.1906 26.3127C59.4764 26.3878 59.6945 26.5489 59.8449 26.796C60 27.0405 60.0419 27.2982 59.9707 27.5693C59.9004 27.8367 59.7371 28.0406 59.4809 28.1808C59.2294 28.3183 58.9607 28.3496 58.675 28.2744ZM61.3243 34.0291L60.007 39.0407L58.3639 38.6088L60.5826 30.1682L62.1597 30.5828L61.7986 31.9566L61.903 31.984C62.2147 31.5881 62.6131 31.309 63.0983 31.1468C63.5872 30.9854 64.1485 30.9881 64.7823 31.1547C65.3575 31.3059 65.8294 31.5592 66.1981 31.9146C66.5678 32.2663 66.8096 32.7098 66.9235 33.245C67.0374 33.7801 67.0029 34.3958 66.8199 35.0918L65.4087 40.4606L63.7657 40.0287L65.1249 34.8577C65.2857 34.246 65.252 33.726 65.0238 33.2978C64.7966 32.866 64.4045 32.577 63.8477 32.4306C63.4667 32.3304 63.1062 32.3238 62.7661 32.4106C62.4297 32.4985 62.1335 32.6791 61.8775 32.9525C61.6262 33.2233 61.4418 33.5822 61.3243 34.0291Z" fill="white"/>
</svg>
