<svg width="94" height="54" viewBox="0 0 94 54" fill="none" xmlns="http://www.w3.org/2000/svg">
<rect x="7.3645" y="1.40434" width="87" height="38" rx="19" transform="rotate(9.03475 7.3645 1.40434)" fill="#141414"/>
<rect x="7.3645" y="1.40434" width="87" height="38" rx="19" transform="rotate(9.03475 7.3645 1.40434)" stroke="#303030"/>
<path d="M13.6512 27.212L11.8107 26.9193L17.7736 16.0849L19.7768 16.4034L22.0851 28.553L20.2445 28.2604L18.491 18.3392L18.4012 18.3249L13.6512 27.212ZM14.6754 22.7608L20.6459 23.7101L20.4139 25.1691L14.4435 24.2197L14.6754 22.7608ZM25.8807 29.3291C25.1849 29.2185 24.5922 28.9421 24.1025 28.4998C23.6172 28.0545 23.2719 27.476 23.0667 26.7645C22.8659 26.0499 22.8395 25.2268 22.9876 24.2953C23.1357 23.3638 23.4176 22.5917 23.8334 21.979C24.2529 21.3668 24.7637 20.9283 25.3658 20.6635C25.9679 20.3987 26.615 20.3213 27.307 20.4314C27.842 20.5164 28.2579 20.6746 28.5548 20.9059C28.8561 21.1341 29.0777 21.3803 29.2198 21.6445C29.3656 21.9093 29.4748 22.1396 29.5472 22.3352L29.6482 22.3512L30.3272 18.081L32.005 18.3478L30.1777 29.8398L28.5392 29.5793L28.7525 28.2382L28.6122 28.2158C28.482 28.3831 28.3028 28.5694 28.0746 28.7747C27.85 28.9807 27.5592 29.1454 27.202 29.2688C26.8449 29.3923 26.4045 29.4124 25.8807 29.3291ZM26.4786 27.9571C26.9612 28.0339 27.3892 27.9715 27.7625 27.7701C28.1403 27.5655 28.4514 27.2487 28.6961 26.8197C28.9445 26.3912 29.1169 25.874 29.2132 25.268C29.3084 24.6694 29.3056 24.132 29.2049 23.6558C29.1042 23.1795 28.9073 22.7896 28.6142 22.486C28.3212 22.1824 27.9296 21.9917 27.4395 21.9137C26.9345 21.8334 26.4928 21.8975 26.1145 22.1058C25.7362 22.3141 25.425 22.6309 25.181 23.0562C24.9407 23.4821 24.7753 23.9793 24.6849 24.5479C24.5933 25.124 24.5969 25.6558 24.6959 26.1433C24.7948 26.6308 24.9912 27.036 25.285 27.3589C25.5832 27.6786 25.9811 27.878 26.4786 27.9571ZM35.3851 30.8462C34.5771 30.7177 33.9014 30.4204 33.358 29.9543C32.8146 29.4881 32.4294 28.8957 32.2023 28.1769C31.9753 27.458 31.9325 26.6535 32.0741 25.7631C32.2162 24.8691 32.507 24.1137 32.9464 23.497C33.3859 22.8803 33.9362 22.4347 34.5973 22.1601C35.2585 21.8855 35.9931 21.8125 36.8011 21.941C37.6092 22.0695 38.2849 22.3668 38.8283 22.8329C39.3717 23.299 39.7566 23.8933 39.9831 24.6159C40.2095 25.3384 40.2517 26.1468 40.1095 27.0408C39.9679 27.9312 39.6777 28.6828 39.2389 29.2957C38.8001 29.9087 38.2501 30.3524 37.5889 30.627C36.9278 30.9016 36.1932 30.9746 35.3851 30.8462ZM35.6147 29.4386C36.1384 29.5219 36.5944 29.4525 36.9826 29.2304C37.3707 29.0083 37.6837 28.6802 37.9215 28.2463C38.163 27.8129 38.3277 27.3194 38.4158 26.7658C38.5032 26.2158 38.4993 25.6974 38.4042 25.2105C38.3133 24.7205 38.1181 24.3078 37.8186 23.9726C37.519 23.6373 37.1074 23.428 36.5837 23.3447C36.0562 23.2608 35.5962 23.3315 35.2037 23.5568C34.8149 23.7826 34.4995 24.1141 34.2574 24.5512C34.0196 24.9851 33.857 25.4771 33.7696 26.027C33.6816 26.5806 33.6833 27.1006 33.7747 27.5869C33.8699 28.0738 34.0675 28.483 34.3677 28.8146C34.6716 29.1467 35.0872 29.3547 35.6147 29.4386ZM40.6479 31.5046L42.4752 20.0126L44.153 20.2794L43.474 24.5496L43.575 24.5657C43.7008 24.4016 43.8741 24.2163 44.0949 24.0097C44.3157 23.8032 44.6027 23.6379 44.9562 23.5138C45.3102 23.386 45.7546 23.3646 46.2896 23.4497C46.9854 23.5603 47.5784 23.8349 48.0687 24.2734C48.5589 24.7119 48.9067 25.2869 49.1119 25.9984C49.3208 26.7105 49.3513 27.5323 49.2031 28.4638C49.055 29.3952 48.7728 30.1692 48.3564 30.7857C47.9406 31.3985 47.433 31.8413 46.8335 32.1142C46.2345 32.3833 45.5871 32.4626 44.8913 32.3519C44.3676 32.2687 43.9533 32.1127 43.6483 31.8839C43.347 31.6557 43.1216 31.4089 42.9721 31.1435C42.8225 30.8781 42.7118 30.6457 42.6399 30.4463L42.4996 30.424L42.2864 31.7651L40.6479 31.5046ZM42.9772 27.4565C42.8809 28.0626 42.8843 28.6077 42.9876 29.0921C43.0908 29.5764 43.2884 29.9741 43.5803 30.2852C43.8728 30.5925 44.2603 30.7845 44.7429 30.8613C45.2442 30.941 45.6843 30.8748 46.0632 30.6627C46.4427 30.4469 46.7551 30.1226 47.0003 29.6899C47.2493 29.2577 47.4196 28.7536 47.5112 28.1775C47.6016 27.6089 47.5968 27.0845 47.4967 26.6045C47.4003 26.1251 47.2027 25.7274 46.9039 25.4114C46.6089 25.096 46.2089 24.8982 45.7038 24.8179C45.2175 24.7406 44.7861 24.8004 44.4096 24.9975C44.0368 25.1952 43.7287 25.5049 43.4852 25.9264C43.2417 26.348 43.0724 26.858 42.9772 27.4565ZM53.3015 33.695C52.4524 33.5599 51.7499 33.2622 51.1941 32.8018C50.6426 32.3382 50.253 31.7489 50.0254 31.0339C49.8021 30.3156 49.7615 29.5095 49.9036 28.6154C50.044 27.7326 50.3323 26.9806 50.7686 26.3596C51.2086 25.7392 51.7561 25.2874 52.4109 25.0041C53.0696 24.7215 53.7991 24.6438 54.5997 24.7711C55.086 24.8484 55.5446 25.0038 55.9754 25.2372C56.4062 25.4706 56.7757 25.7883 57.0838 26.1901C57.3919 26.592 57.607 27.0845 57.7291 27.6677C57.8517 28.2472 57.8509 28.9279 57.7266 29.7097L57.632 30.3045L50.7806 29.2151L50.9804 27.9582L56.1877 28.7862C56.2579 28.3447 56.2303 27.9395 56.1049 27.5706C55.98 27.1979 55.7707 26.8865 55.4767 26.6365C55.1865 26.3871 54.8245 26.2278 54.3905 26.1588C53.9192 26.0839 53.4892 26.1344 53.1007 26.3105C52.7165 26.4833 52.3996 26.7398 52.1499 27.0798C51.9046 27.4166 51.7477 27.8002 51.6793 28.2304L51.5232 29.2124C51.4316 29.7885 51.4547 30.2946 51.5924 30.7307C51.7339 31.1674 51.971 31.5216 52.3037 31.7931C52.637 32.0609 53.0487 32.2337 53.5388 32.3117C53.8567 32.3622 54.1538 32.3634 54.4299 32.3153C54.7067 32.2634 54.955 32.161 55.1749 32.008C55.3949 31.855 55.5767 31.6519 55.7206 31.3986L57.2631 31.9373C57.0615 32.3847 56.7682 32.758 56.3831 33.0573C56.0023 33.3535 55.5496 33.5596 55.0248 33.6756C54.5044 33.7884 53.93 33.7949 53.3015 33.695ZM64.6587 23.5399L66.6936 28.4718L66.7834 28.4861L70.2476 24.4286L72.2565 24.748L67.7628 29.9248L70.4516 36.2436L68.4315 35.9224L66.3756 31.0505L66.2858 31.0362L62.8202 35.0301L60.8001 34.7089L65.378 29.5456L62.6499 23.2205L64.6587 23.5399ZM75.0793 36.9794L71.359 36.3879L73.1863 24.8959L77.0244 25.5062C78.1504 25.6852 79.0808 26.069 79.8157 26.6576C80.5512 27.2425 81.0659 27.9975 81.3599 28.9225C81.6582 29.8445 81.7125 30.9021 81.5227 32.0954C81.3324 33.2925 80.95 34.2865 80.3755 35.0773C79.8047 35.8687 79.071 36.4309 78.1742 36.7639C77.2781 37.0932 76.2464 37.165 75.0793 36.9794ZM73.3338 35.1485L75.2248 35.4492C76.1001 35.5884 76.8539 35.5395 77.4861 35.3025C78.1189 35.0617 78.6292 34.65 79.0172 34.0674C79.4058 33.481 79.6724 32.7332 79.8169 31.8242C79.9603 30.9226 79.9379 30.1347 79.7498 29.4605C79.5654 28.7868 79.2166 28.2423 78.7035 27.827C78.1904 27.4118 77.5148 27.1375 76.6769 27.0043L74.6792 26.6866L73.3338 35.1485Z" fill="white"/>
</svg>
