<svg width="256" height="256" viewBox="0 0 256 256" fill="none" xmlns="http://www.w3.org/2000/svg">
<rect width="256.001" height="256" fill="black"/>
<path d="M101.254 111.154C122.583 100.954 139.274 83.6438 148.857 62.0065C142.675 55.5153 134.638 50.8787 125.983 48.0968L121.346 46.5513C121.037 47.1695 120.728 48.0968 120.728 48.715C113.31 69.7342 98.1635 86.7349 77.7626 96.3171C63.5437 103.117 53.0342 115.482 48.0885 130.319L46.543 134.955C47.1612 135.264 48.0885 135.573 48.7067 135.573C54.5797 137.737 60.4527 140.519 66.0166 143.919C73.7442 130.01 86.1084 118.264 101.254 111.154Z" fill="white"/>
<path d="M190.916 112.389C179.479 129.699 163.715 143.609 144.241 152.882C128.477 160.3 116.422 174.21 110.858 190.902L109.312 196.157C115.185 201.411 122.295 205.43 130.023 207.903L134.659 209.448C134.968 208.83 135.277 207.903 135.277 207.284C142.696 186.265 157.842 169.264 178.243 159.682C192.462 152.882 203.28 140.518 207.917 125.681L209.462 121.044C202.971 119.19 196.789 116.098 190.916 112.389Z" fill="white"/>
<path d="M96.9427 180.085C104.67 161.538 118.889 146.392 137.126 137.737C153.818 129.701 167.728 117.336 177.31 102.19C170.2 95.39 164.327 87.6623 160 78.3892C148.563 99.4083 130.635 116.409 108.689 126.919C96.0154 132.792 85.8149 142.992 79.6328 155.356C86.4331 161.847 91.997 169.884 96.3245 178.848C96.3245 178.848 96.6336 179.466 96.9427 180.085Z" fill="white"/>
</svg>
